<svg width="825" height="308" viewBox="0 0 825 308" fill="none" xmlns="http://www.w3.org/2000/svg">
<path d="M21.44 28.24H26.64V32.6H20.92L20.12 39H15.6L16.4 32.6H10.52L9.72 39H5.24L6.04 32.6H0.8V28.24H6.56L7.4 21.76H2.16V17.4H7.92L8.72 11H13.2L12.4 17.4H18.28L19.08 11H23.56L22.76 17.4H27.96L28 21.76H22.24L21.44 28.24ZM16.92 28.24L17.76 21.76H11.88L11.04 28.24H16.92ZM45.5091 39.48C42.6557 39.48 40.0691 38.8667 37.7491 37.64C35.4557 36.3867 33.6424 34.6667 32.3091 32.48C31.0024 30.2667 30.3491 27.7733 30.3491 25C30.3491 22.2267 31.0024 19.7467 32.3091 17.56C33.6424 15.3467 35.4557 13.6267 37.7491 12.4C40.0691 11.1467 42.6691 10.52 45.5491 10.52C47.9757 10.52 50.1624 10.9467 52.1091 11.8C54.0824 12.6533 55.7357 13.88 57.0691 15.48L52.9091 19.32C51.0157 17.1333 48.6691 16.04 45.8691 16.04C44.1357 16.04 42.5891 16.4267 41.2291 17.2C39.8691 17.9467 38.8024 19 38.0291 20.36C37.2824 21.72 36.9091 23.2667 36.9091 25C36.9091 26.7333 37.2824 28.28 38.0291 29.64C38.8024 31 39.8691 32.0667 41.2291 32.84C42.5891 33.5867 44.1357 33.96 45.8691 33.96C48.6691 33.96 51.0157 32.8533 52.9091 30.64L57.0691 34.48C55.7357 36.1067 54.0824 37.3467 52.1091 38.2C50.1357 39.0533 47.9357 39.48 45.5091 39.48ZM70.5028 39.32C68.2361 39.32 66.1961 38.8533 64.3828 37.92C62.5961 36.96 61.1961 35.64 60.1828 33.96C59.1695 32.28 58.6628 30.3733 58.6628 28.24C58.6628 26.1067 59.1695 24.2 60.1828 22.52C61.1961 20.84 62.5961 19.5333 64.3828 18.6C66.1961 17.64 68.2361 17.16 70.5028 17.16C72.7695 17.16 74.7961 17.64 76.5828 18.6C78.3695 19.5333 79.7695 20.84 80.7828 22.52C81.7961 24.2 82.3028 26.1067 82.3028 28.24C82.3028 30.3733 81.7961 32.28 80.7828 33.96C79.7695 35.64 78.3695 36.96 76.5828 37.92C74.7961 38.8533 72.7695 39.32 70.5028 39.32ZM70.5028 34.2C72.1028 34.2 73.4095 33.6667 74.4228 32.6C75.4628 31.5067 75.9828 30.0533 75.9828 28.24C75.9828 26.4267 75.4628 24.9867 74.4228 23.92C73.4095 22.8267 72.1028 22.28 70.5028 22.28C68.9028 22.28 67.5828 22.8267 66.5428 23.92C65.5028 24.9867 64.9828 26.4267 64.9828 28.24C64.9828 30.0533 65.5028 31.5067 66.5428 32.6C67.5828 33.6667 68.9028 34.2 70.5028 34.2ZM86.4737 9.32H92.7138V39H86.4737V9.32ZM108.745 39.32C106.478 39.32 104.438 38.8533 102.625 37.92C100.838 36.96 99.4383 35.64 98.425 33.96C97.4117 32.28 96.905 30.3733 96.905 28.24C96.905 26.1067 97.4117 24.2 98.425 22.52C99.4383 20.84 100.838 19.5333 102.625 18.6C104.438 17.64 106.478 17.16 108.745 17.16C111.012 17.16 113.038 17.64 114.825 18.6C116.612 19.5333 118.012 20.84 119.025 22.52C120.038 24.2 120.545 26.1067 120.545 28.24C120.545 30.3733 120.038 32.28 119.025 33.96C118.012 35.64 116.612 36.96 114.825 37.92C113.038 38.8533 111.012 39.32 108.745 39.32ZM108.745 34.2C110.345 34.2 111.652 33.6667 112.665 32.6C113.705 31.5067 114.225 30.0533 114.225 28.24C114.225 26.4267 113.705 24.9867 112.665 23.92C111.652 22.8267 110.345 22.28 108.745 22.28C107.145 22.28 105.825 22.8267 104.785 23.92C103.745 24.9867 103.225 26.4267 103.225 28.24C103.225 30.0533 103.745 31.5067 104.785 32.6C105.825 33.6667 107.145 34.2 108.745 34.2ZM130.676 20.32C131.423 19.28 132.423 18.4933 133.676 17.96C134.956 17.4267 136.423 17.16 138.076 17.16V22.92C137.383 22.8667 136.916 22.84 136.676 22.84C134.889 22.84 133.489 23.3467 132.476 24.36C131.463 25.3467 130.956 26.84 130.956 28.84V39H124.716V17.48H130.676V20.32Z" fill="#5F75AA"/>
<circle cx="782.5" cy="141.5" r="42.5" fill="#32917B"/>
<circle cx="462.5" cy="257.5" r="42.5" fill="#ADADAD"/>
<circle cx="567.5" cy="257.5" r="42.5" fill="#7F7F7F"/>
<circle cx="672.5" cy="257.5" r="42.5" fill="#686868"/>
<circle cx="42.5" cy="257.5" r="42.5" fill="#F2F2F2"/>
<g filter="url(#filter0_d_765_23302)">
<circle cx="147.5" cy="257.5" r="42.5" fill="#EBEBEB"/>
</g>
<g filter="url(#filter1_d_765_23302)">
<circle cx="252.5" cy="257.5" r="42.5" fill="#E3E3E3"/>
</g>
<circle cx="357.5" cy="257.5" r="42.5" fill="#CCCCCC"/>
<circle cx="42.5" cy="141.5" r="42.5" fill="#DE8F75"/>
<circle cx="147.5" cy="141.5" r="42.5" fill="#5F75AA"/>
<circle cx="252.5" cy="141.5" r="42.5" fill="#AEB6C1"/>
<circle cx="362.5" cy="141.5" r="42.5" fill="#A9095E"/>
<circle cx="467.5" cy="141.5" r="42.5" fill="#2A5A75"/>
<circle cx="677.5" cy="141.5" r="42.5" fill="white"/>
<circle cx="572.5" cy="141.5" r="42.5" fill="black"/>
<defs>
<filter id="filter0_d_765_23302" x="101" y="215" width="93" height="93" filterUnits="userSpaceOnUse" color-interpolation-filters="sRGB">
<feFlood flood-opacity="0" result="BackgroundImageFix"/>
<feColorMatrix in="SourceAlpha" type="matrix" values="0 0 0 0 0 0 0 0 0 0 0 0 0 0 0 0 0 0 127 0" result="hardAlpha"/>
<feOffset dy="4"/>
<feGaussianBlur stdDeviation="2"/>
<feColorMatrix type="matrix" values="0 0 0 0 0 0 0 0 0 0 0 0 0 0 0 0 0 0 0.25 0"/>
<feBlend mode="normal" in2="BackgroundImageFix" result="effect1_dropShadow_765_23302"/>
<feBlend mode="normal" in="SourceGraphic" in2="effect1_dropShadow_765_23302" result="shape"/>
</filter>
<filter id="filter1_d_765_23302" x="206" y="215" width="93" height="93" filterUnits="userSpaceOnUse" color-interpolation-filters="sRGB">
<feFlood flood-opacity="0" result="BackgroundImageFix"/>
<feColorMatrix in="SourceAlpha" type="matrix" values="0 0 0 0 0 0 0 0 0 0 0 0 0 0 0 0 0 0 127 0" result="hardAlpha"/>
<feOffset dy="4"/>
<feGaussianBlur stdDeviation="2"/>
<feColorMatrix type="matrix" values="0 0 0 0 0 0 0 0 0 0 0 0 0 0 0 0 0 0 0.25 0"/>
<feBlend mode="normal" in2="BackgroundImageFix" result="effect1_dropShadow_765_23302"/>
<feBlend mode="normal" in="SourceGraphic" in2="effect1_dropShadow_765_23302" result="shape"/>
</filter>
</defs>
</svg>
